<!-- Generated by IcoMoon.io -->
<svg version="1.1" xmlns="http://www.w3.org/2000/svg" width="24" height="24" viewBox="0 0 1024 1024">
    <title></title>
    <g id="icomoon-ignore">
    </g>
    <path fill="currentColor"
          d="M757.389 79.448c-8.21-40.236-43.855-70.621-86.493-70.621-9.763 0-17.655 7.892-17.655 17.655s7.892 17.655 17.655 17.655c29.202 0 52.966 23.764 52.966 52.966s-23.764 52.966-52.966 52.966c-9.763 0-17.655 7.892-17.655 17.655s7.892 17.655 17.655 17.655c42.62 0 78.283-30.385 86.493-70.621h231.3v158.897h-953.379v-158.897h300.138c9.763 0 17.655-7.892 17.655-17.655s-7.892-17.655-17.655-17.655h-32.062c7.309-20.515 26.73-35.31 49.717-35.31 29.202 0 52.966 23.764 52.966 52.966s-23.764 52.966-52.966 52.966c-9.763 0-17.655 7.892-17.655 17.655s7.892 17.655 17.655 17.655c48.675 0 88.276-39.601 88.276-88.276s-39.601-88.276-88.276-88.276c-42.62 0-78.283 30.385-86.493 70.621h-266.611v935.724h1024v-935.724h-266.611zM988.69 979.862h-953.379v-670.897h953.379v670.897z"></path>
    <path fill="currentColor"
          d="M459.034 44.138c29.202 0 52.966 23.764 52.966 52.966s-23.764 52.966-52.966 52.966c-9.763 0-17.655 7.892-17.655 17.655s7.892 17.655 17.655 17.655c48.675 0 88.276-39.601 88.276-88.276s-39.601-88.276-88.276-88.276c-9.763 0-17.655 7.892-17.655 17.655s7.892 17.655 17.655 17.655z"></path>
    <path fill="currentColor"
          d="M564.966 44.138c29.202 0 52.966 23.764 52.966 52.966s-23.764 52.966-52.966 52.966c-9.763 0-17.655 7.892-17.655 17.655s7.892 17.655 17.655 17.655c48.675 0 88.276-39.601 88.276-88.276s-39.601-88.276-88.276-88.276c-9.763 0-17.655 7.892-17.655 17.655s7.892 17.655 17.655 17.655z"></path>
    <path fill="currentColor"
          d="M406.069 432.552c0 9.751-7.904 17.655-17.655 17.655s-17.655-7.904-17.655-17.655c0-9.751 7.904-17.655 17.655-17.655s17.655 7.904 17.655 17.655z"></path>
    <path fill="currentColor"
          d="M529.655 432.552c0 9.751-7.904 17.655-17.655 17.655s-17.655-7.904-17.655-17.655c0-9.751 7.904-17.655 17.655-17.655s17.655 7.904 17.655 17.655z"></path>
    <path fill="currentColor"
          d="M653.241 432.552c0 9.751-7.904 17.655-17.655 17.655s-17.655-7.904-17.655-17.655c0-9.751 7.904-17.655 17.655-17.655s17.655 7.904 17.655 17.655z"></path>
    <path fill="currentColor"
          d="M776.828 432.552c0 9.751-7.904 17.655-17.655 17.655s-17.655-7.904-17.655-17.655c0-9.751 7.904-17.655 17.655-17.655s17.655 7.904 17.655 17.655z"></path>
    <path fill="currentColor"
          d="M900.414 432.552c0 9.751-7.904 17.655-17.655 17.655s-17.655-7.904-17.655-17.655c0-9.751 7.904-17.655 17.655-17.655s17.655 7.904 17.655 17.655z"></path>
    <path fill="currentColor"
          d="M158.897 573.793c0 9.751-7.904 17.655-17.655 17.655s-17.655-7.904-17.655-17.655c0-9.751 7.904-17.655 17.655-17.655s17.655 7.904 17.655 17.655z"></path>
    <path fill="currentColor"
          d="M282.483 573.793c0 9.751-7.904 17.655-17.655 17.655s-17.655-7.904-17.655-17.655c0-9.751 7.904-17.655 17.655-17.655s17.655 7.904 17.655 17.655z"></path>
    <path fill="currentColor"
          d="M406.069 573.793c0 9.751-7.904 17.655-17.655 17.655s-17.655-7.904-17.655-17.655c0-9.751 7.904-17.655 17.655-17.655s17.655 7.904 17.655 17.655z"></path>
    <path fill="currentColor"
          d="M529.655 573.793c0 9.751-7.904 17.655-17.655 17.655s-17.655-7.904-17.655-17.655c0-9.751 7.904-17.655 17.655-17.655s17.655 7.904 17.655 17.655z"></path>
    <path fill="currentColor"
          d="M653.241 573.793c0 9.751-7.904 17.655-17.655 17.655s-17.655-7.904-17.655-17.655c0-9.751 7.904-17.655 17.655-17.655s17.655 7.904 17.655 17.655z"></path>
    <path fill="currentColor"
          d="M776.828 573.793c0 9.751-7.904 17.655-17.655 17.655s-17.655-7.904-17.655-17.655c0-9.751 7.904-17.655 17.655-17.655s17.655 7.904 17.655 17.655z"></path>
    <path fill="currentColor"
          d="M900.414 573.793c0 9.751-7.904 17.655-17.655 17.655s-17.655-7.904-17.655-17.655c0-9.751 7.904-17.655 17.655-17.655s17.655 7.904 17.655 17.655z"></path>
    <path fill="currentColor"
          d="M158.897 697.379c0 9.751-7.904 17.655-17.655 17.655s-17.655-7.904-17.655-17.655c0-9.751 7.904-17.655 17.655-17.655s17.655 7.904 17.655 17.655z"></path>
    <path fill="currentColor"
          d="M282.483 697.379c0 9.751-7.904 17.655-17.655 17.655s-17.655-7.904-17.655-17.655c0-9.751 7.904-17.655 17.655-17.655s17.655 7.904 17.655 17.655z"></path>
    <path fill="currentColor"
          d="M406.069 697.379c0 9.751-7.904 17.655-17.655 17.655s-17.655-7.904-17.655-17.655c0-9.751 7.904-17.655 17.655-17.655s17.655 7.904 17.655 17.655z"></path>
    <path fill="currentColor"
          d="M529.655 697.379c0 9.751-7.904 17.655-17.655 17.655s-17.655-7.904-17.655-17.655c0-9.751 7.904-17.655 17.655-17.655s17.655 7.904 17.655 17.655z"></path>
    <path fill="currentColor"
          d="M653.241 697.379c0 9.751-7.904 17.655-17.655 17.655s-17.655-7.904-17.655-17.655c0-9.751 7.904-17.655 17.655-17.655s17.655 7.904 17.655 17.655z"></path>
    <path fill="currentColor"
          d="M776.828 697.379c0 9.751-7.904 17.655-17.655 17.655s-17.655-7.904-17.655-17.655c0-9.751 7.904-17.655 17.655-17.655s17.655 7.904 17.655 17.655z"></path>
    <path fill="currentColor"
          d="M900.414 697.379c0 9.751-7.904 17.655-17.655 17.655s-17.655-7.904-17.655-17.655c0-9.751 7.904-17.655 17.655-17.655s17.655 7.904 17.655 17.655z"></path>
    <path fill="currentColor"
          d="M158.897 838.621c0 9.751-7.904 17.655-17.655 17.655s-17.655-7.904-17.655-17.655c0-9.751 7.904-17.655 17.655-17.655s17.655 7.904 17.655 17.655z"></path>
    <path fill="currentColor"
          d="M282.483 838.621c0 9.751-7.904 17.655-17.655 17.655s-17.655-7.904-17.655-17.655c0-9.751 7.904-17.655 17.655-17.655s17.655 7.904 17.655 17.655z"></path>
    <path fill="currentColor"
          d="M406.069 838.621c0 9.751-7.904 17.655-17.655 17.655s-17.655-7.904-17.655-17.655c0-9.751 7.904-17.655 17.655-17.655s17.655 7.904 17.655 17.655z"></path>
    <path fill="currentColor"
          d="M529.655 838.621c0 9.751-7.904 17.655-17.655 17.655s-17.655-7.904-17.655-17.655c0-9.751 7.904-17.655 17.655-17.655s17.655 7.904 17.655 17.655z"></path>
    <path fill="currentColor"
          d="M653.241 838.621c0 9.751-7.904 17.655-17.655 17.655s-17.655-7.904-17.655-17.655c0-9.751 7.904-17.655 17.655-17.655s17.655 7.904 17.655 17.655z"></path>
</svg>
