<svg xmlns="http://www.w3.org/2000/svg" viewBox="31.5 34 960.08 961" fill="currentColor" width="24" height="24">
    <path d="M963 192l-131-131q-26-27-64-27-38 0-64 27l-611 611 0 3q-3 2-3 4.5 0 2.5 0 5.5l0 0-58 281q-2 10 4 18.5 6 8.5 15 10.5 3 0 3.5 0 0.5 0 3.5 0l6 0 275-54 3 0q5 0 9.5-2 4.5-2 6.5-5l608-611q27-29 25.5-67-1.5-38-28.5-64l0 0z m-877 745l39-198 160 160-199 38z m250-57l-195-192 489-490 192 192-486 490 0 0z m592-592l-70 67-192-192 70-67q12-12 29-12 17 0 29 12l134 131q12 12 12 29 0 17-12 32 0-3 0-1.5 0 1.5 0 1.5l0 0z"/>
</svg>
